# xmcd CD database file
#
# Track frame offsets:
#	150
#	41812
#	66463
#	91799
#	111529
#	145769
#	168365
#	204553
#	229313
#	263606
#	290356
#	324148
#
# Disc length: 4750 seconds
#
# Revision: 1
# Processed by: cddbd v1.5.2PL0 Copyright (c) Steve Scherf et al.
# Submitted via: CDex 1.51
#
DISCID=ad128c0c
DTITLE=Chris Cleave - Little Bee
DYEAR=2011
DGENRE=Hörbuch
TTITLE0=401
TTITLE1=402
TTITLE2=403
TTITLE3=404
TTITLE4=405
TTITLE5=406
TTITLE6=407
TTITLE7=408
TTITLE8=409
TTITLE9=410
TTITLE10=411
TTITLE11=412
EXTD=YEAR: 2011
EXTT0=
EXTT1=
EXTT2=
EXTT3=
EXTT4=
EXTT5=
EXTT6=
EXTT7=
EXTT8=
EXTT9=
EXTT10=
EXTT11=
PLAYORDER=
